<svg width="20" height="20" viewBox="0 0 20 20" fill="none" xmlns="http://www.w3.org/2000/svg">
<path d="M9.6 0C4.2984 0 0 4.2856 0 9.5704C0 14.8552 4.2984 19.1408 9.6 19.1408C14.9024 19.1408 19.2 14.8552 19.2 9.5704C19.2 4.2856 14.9016 0 9.6 0ZM9.1672 3.84C10.6952 3.736 12.268 4.156 13.5128 5.3872C14.6536 6.5368 15.5208 8.1392 15.5032 9.6408H17.2096L13.6544 13.6112L10.0984 9.6408H11.9488C11.948 8.2616 11.6072 7.4472 10.5248 6.38C9.4648 5.3112 8.3912 4.692 6.5424 4.5376C7.36683 4.14532 8.25676 3.90907 9.1672 3.8408V3.84ZM5.5472 5.5304L9.1032 9.5008H7.2528C7.2528 10.88 7.5936 11.6944 8.6752 12.7616C9.736 13.8304 10.8088 14.4512 12.6576 14.6056C10.5104 15.62 7.6816 15.724 5.6896 13.7544C4.548 12.6048 3.68 11.0024 3.6984 9.5008H1.9904L5.5472 5.5304Z" fill="#303F9F"/>
</svg>
