<svg width="16" height="17" viewBox="0 0 16 17" fill="none" xmlns="http://www.w3.org/2000/svg">
<path d="M4.83333 1.50261H4.66667C4.75833 1.50261 4.83333 1.42748 4.83333 1.33565V1.50261H11.1667V1.33565C11.1667 1.42748 11.2417 1.50261 11.3333 1.50261H11.1667V3.00522H12.6667V1.33565C12.6667 0.598957 12.0687 0 11.3333 0H4.66667C3.93125 0 3.33333 0.598957 3.33333 1.33565V3.00522H4.83333V1.50261ZM15.3333 3.00522H0.666667C0.297917 3.00522 0 3.30365 0 3.67304V4.34087C0 4.4327 0.075 4.50783 0.166667 4.50783H1.425L1.93958 15.4226C1.97292 16.1343 2.56042 16.6957 3.27083 16.6957H12.7292C13.4417 16.6957 14.0271 16.1363 14.0604 15.4226L14.575 4.50783H15.8333C15.925 4.50783 16 4.4327 16 4.34087V3.67304C16 3.30365 15.7021 3.00522 15.3333 3.00522ZM12.5687 15.193H3.43125L2.92708 4.50783H13.0729L12.5687 15.193Z" fill="black"/>
</svg>
