<svg width="20" height="18" viewBox="0 0 20 18" fill="none" xmlns="http://www.w3.org/2000/svg">
<path d="M19.5161 3.67235C19.2058 2.95371 18.7584 2.30249 18.1988 1.75514C17.6389 1.20616 16.9787 0.769888 16.2542 0.470056C15.5029 0.157915 14.6971 -0.00185651 13.8835 1.62751e-05C12.7422 1.62751e-05 11.6286 0.312604 10.6609 0.903049C10.4294 1.04429 10.2095 1.19943 10.0011 1.36846C9.79279 1.19943 9.57286 1.04429 9.34135 0.903049C8.37364 0.312604 7.26009 1.62751e-05 6.11876 1.62751e-05C5.2969 1.62751e-05 4.50052 0.157468 3.74811 0.470056C3.02118 0.771067 2.36601 1.20406 1.80345 1.75514C1.24319 2.30187 0.795642 2.95325 0.486167 3.67235C0.164371 4.42024 0 5.21445 0 6.03181C0 6.80286 0.157426 7.60633 0.469961 8.42369C0.731565 9.10675 1.10661 9.81528 1.58583 10.5308C2.34518 11.663 3.38928 12.8439 4.68572 14.041C6.83412 16.0254 8.96167 17.3961 9.05196 17.4517L9.60064 17.8036C9.84372 17.9588 10.1563 17.9588 10.3993 17.8036L10.948 17.4517C11.0383 17.3938 13.1635 16.0254 15.3143 14.041C16.6107 12.8439 17.6548 11.663 18.4141 10.5308C18.8934 9.81528 19.2707 9.10675 19.53 8.42369C19.8426 7.60633 20 6.80286 20 6.03181C20.0023 5.21445 19.8379 4.42024 19.5161 3.67235Z" fill="black"/>
</svg>
