<svg width="18" height="22" viewBox="0 0 18 22" fill="none" xmlns="http://www.w3.org/2000/svg">
<path d="M12.0002 17.9998C12.0002 18.7954 11.6841 19.5585 11.1215 20.1211C10.5589 20.6837 9.79585 20.9997 9.00021 20.9997C8.20458 20.9997 7.44153 20.6837 6.87893 20.1211C6.31633 19.5585 6.00027 18.7954 6.00027 17.9998M9.7212 4.00302L8.25523 4.00002C4.91129 3.99202 2.00834 6.70897 1.98534 9.99991V13.7898C1.98534 14.5798 1.88534 15.3508 1.45435 16.0078L1.16735 16.4458C0.730359 17.1098 1.20035 17.9998 1.98534 17.9998H16.0151C16.8001 17.9998 17.2691 17.1098 16.8331 16.4458L16.5461 16.0078C16.1161 15.3508 16.0151 14.5788 16.0151 13.7888V10.0009C15.9751 6.70897 13.0651 4.01102 9.7212 4.00302Z" stroke="black" stroke-width="1.5" stroke-linecap="round" stroke-linejoin="round"/>
<path d="M8.99996 1C9.53039 1 10.0391 1.21071 10.4142 1.58578C10.7892 1.96084 10.9999 2.46954 10.9999 2.99997V3.99995H7V2.99997C7 2.46954 7.21071 1.96084 7.58578 1.58578C7.96084 1.21071 8.46954 1 8.99996 1Z" stroke="black" stroke-width="1.5" stroke-linecap="round" stroke-linejoin="round"/>
</svg>
