<svg width="24" height="22" viewBox="0 0 24 22" fill="none" xmlns="http://www.w3.org/2000/svg">
<path d="M12 9C10.374 9 9 10.374 9 12C9 13.626 10.374 15 12 15C13.626 15 15 13.626 15 12C15 10.374 13.626 9 12 9Z" fill="#EEEEEE"/>
<path d="M21.6 3.6H18.4968L15.2484 0.351601C15.1372 0.23995 15.0049 0.151405 14.8593 0.0910625C14.7137 0.0307202 14.5576 -0.000227339 14.4 1.25721e-06H9.6C9.44239 -0.000227339 9.28629 0.0307202 9.14068 0.0910625C8.99508 0.151405 8.86285 0.23995 8.7516 0.351601L5.5032 3.6H2.4C1.0764 3.6 0 4.6764 0 6V19.2C0 20.5236 1.0764 21.6 2.4 21.6H21.6C22.9236 21.6 24 20.5236 24 19.2V6C24 4.6764 22.9236 3.6 21.6 3.6ZM12 18C8.748 18 6 15.252 6 12C6 8.748 8.748 6 12 6C15.252 6 18 8.748 18 12C18 15.252 15.252 18 12 18Z" fill="#EEEEEE"/>
</svg>
