<svg width="8" height="8" viewBox="0 0 8 8" fill="none" xmlns="http://www.w3.org/2000/svg">
<path fill-rule="evenodd" clip-rule="evenodd" d="M7.90208 0.0979167C7.93312 0.128877 7.95775 0.165656 7.97455 0.206147C7.99135 0.246639 8 0.290048 8 0.333887C8 0.377726 7.99135 0.421135 7.97455 0.461626C7.95775 0.502118 7.93312 0.538897 7.90208 0.569857L0.569682 7.90226C0.507099 7.96484 0.422218 8 0.333712 8C0.245206 8 0.160325 7.96484 0.0977419 7.90226C0.0351588 7.83968 0 7.75479 0 7.66629C0 7.57778 0.0351588 7.4929 0.0977419 7.43032L7.43014 0.0979167C7.4611 0.0668785 7.49788 0.0422531 7.53837 0.025451C7.57887 0.00864881 7.62227 0 7.66611 0C7.70995 0 7.75336 0.00864881 7.79385 0.025451C7.83434 0.0422531 7.87112 0.0668785 7.90208 0.0979167V0.0979167Z" fill="black"/>
<path fill-rule="evenodd" clip-rule="evenodd" d="M0.0979167 0.0979167C0.0668785 0.128877 0.0422531 0.165656 0.025451 0.206147C0.00864881 0.246639 0 0.290048 0 0.333887C0 0.377726 0.00864881 0.421135 0.025451 0.461626C0.0422531 0.502118 0.0668785 0.538897 0.0979167 0.569857L7.43032 7.90226C7.4929 7.96484 7.57778 8 7.66629 8C7.75479 8 7.83968 7.96484 7.90226 7.90226C7.96484 7.83968 8 7.75479 8 7.66629C8 7.57778 7.96484 7.4929 7.90226 7.43032L0.569857 0.0979167C0.538897 0.0668785 0.502118 0.0422531 0.461626 0.025451C0.421135 0.00864881 0.377726 0 0.333887 0C0.290048 0 0.246639 0.00864881 0.206147 0.025451C0.165656 0.0422531 0.128877 0.0668785 0.0979167 0.0979167V0.0979167Z" fill="black"/>
</svg>
